<svg id="Слой_1" data-name="Слой 1" xmlns="http://www.w3.org/2000/svg" xmlns:xlink="http://www.w3.org/1999/xlink" viewBox="0 0 116 72"><defs><style>.cls-1{fill:none;}.cls-2{fill:#f07800;}.cls-3{fill:#d36400;}.cls-4{fill:#ffba7b;}.cls-5{clip-path:url(#clip-path);}.cls-6{fill:url(#Безымянный_градиент_2);}.cls-7{fill:#f2b00a;}.cls-8{fill:#ef9900;}.cls-9{clip-path:url(#clip-path-2);}.cls-10{fill:url(#Безымянный_градиент_2-2);}.cls-11{fill:#f7c003;}.cls-12{opacity:0.3;}.cls-13{clip-path:url(#clip-path-3);}.cls-14{fill:#fff;}</style><clipPath id="clip-path"><polygon class="cls-1" points="73.26 38.81 72.63 39.34 74.17 41.2 74.83 40.65 75.39 40.19 73.84 38.33 73.26 38.81"/></clipPath><linearGradient id="Безымянный_градиент_2" x1="648.7" y1="-363.35" x2="649.03" y2="-363.35" gradientTransform="matrix(-5.47, 0, 0, 5.47, 3623.9, 2027.59)" gradientUnits="userSpaceOnUse"><stop offset="0" stop-color="#a8a8a8"/><stop offset="0.37" stop-color="#c1c1c1"/><stop offset="0.73" stop-color="#d3d3d3"/><stop offset="1" stop-color="#d9d9d9"/></linearGradient><clipPath id="clip-path-2"><polygon class="cls-1" points="106.33 51.16 106.47 51.87 106.64 52.71 109.01 52.24 108.85 51.43 108.7 50.69 106.33 51.16"/></clipPath><linearGradient id="Безымянный_градиент_2-2" x1="573.2" y1="-377.24" x2="573.53" y2="-377.24" gradientTransform="matrix(-8.66, 0, 0, 8.66, 5070.25, 3316.73)" xlink:href="#Безымянный_градиент_2"/><clipPath id="clip-path-3"><rect class="cls-1" x="82.96" y="26.68" width="22.86" height="19.13"/></clipPath></defs><path class="cls-2" d="M51.94,49.55,72.88,24.71H53.08V12.05H92.91V22.38L72,47.29H94V60H51.94ZM25.71,11.09A25.32,25.32,0,0,0,3.5,23.31l13.64,1.56v.77L1.56,27.39A25.17,25.17,0,0,0,1.35,44l32.87,2.19v.76L3.68,49a25.34,25.34,0,0,0,22,11.95c15.06,0,25.6-11.43,25.6-24.91S40.77,11.09,25.71,11.09"/><path class="cls-3" d="M89.75,19.55l-.44-2c.36-1,.48-1.53.29-1.68L89,16c-.27-1.21-.51-2.28-.54-2.34s1.55-1.08,1-1.54-3.28-.25-3.28-.25c-.49.09-.89,1.65-1.17,3.3,0,0-6.81,16-8.45,20.56-.44,1.25-1.19,2.46-.49,3a1.55,1.55,0,0,0,2.18-.34,66.12,66.12,0,0,0,4.76-7c2.3-5.05,4.35-9.16,5.56-11.88l1.24.15"/><path class="cls-4" d="M77.86,39C90.25,28.45,92.18,18.48,92.1,18.34s-2.11-5.8-2.7-6.26-3.28-.25-3.28-.25a.22.22,0,0,0-.1,0c-.89.41-10.52,24.89-10.52,24.89-.08,1.58,1.83,2.68,2.36,2.23M87.8,13.88c.1.37,2.16,2.37,2.58,4.38-.7,0-11.63,21.05-13.57,19.36-1.21-1,9.09-24,9.71-25.53a9.29,9.29,0,0,1,2.06.47l-.36.31c-.22.19-.63.53-.42,1"/><polygon points="72.65 43.04 78.12 44.98 79.05 42.35 72.09 39.88 72.65 43.04"/><path d="M77.21,39S73.45,41.7,72.65,43a3.34,3.34,0,0,1-1-2.88l3.87-3.42Z"/><g class="cls-5"><rect class="cls-6" x="72.06" y="37.8" width="3.9" height="3.93" transform="matrix(0.82, -0.57, 0.57, 0.82, -9.51, 48.88)"/></g><path class="cls-2" d="M75.69,40.35l-1.27,1h0l0,0-.07,0a1,1,0,0,1-1.24-.16l-.79-1a1,1,0,0,1,.07-1.25l.06-.06L73.72,38a.38.38,0,0,1,.53,0l1.5,1.8a.39.39,0,0,1-.06.54"/><polygon points="73.84 38.33 75.39 40.19 74.83 40.65 73.26 38.81 73.84 38.33"/><polygon points="74.83 40.65 74.17 41.2 72.63 39.34 73.26 38.81 74.83 40.65"/><path class="cls-4" d="M88.66,15c.45,1.36.8,2.72,1.16,4.17,0,.14.07.28.1.42l4.6.17c-.2-.82-.38-1.62-.55-2.38-.55-2.43-1.32-4.92-2-5.46-1.11-.07-3.06-.16-4.79-.09h0c.1.07.61.51,1.5,3.17"/><path class="cls-7" d="M94,17.35c.17.76.35,1.56.55,2.38l.72,0c-.22-.89-.41-1.75-.59-2.56C94,14.42,93.72,12.64,92.8,12l-.41,0-.45,0c.71.54,1.48,3,2,5.46"/><path class="cls-7" d="M89.82,19.14c-.36-1.45-.71-2.81-1.16-4.17-.89-2.66-1.4-3.1-1.5-3.17H86.6l-.48,0s.88.53,1.88,3.36c.47,1.32.79,2.69,1.15,4.12l0,.22.72,0c0-.14-.06-.28-.1-.42"/><path class="cls-2" d="M108.18,26.08l1.63-1.31c.32-1,.59-1.49.83-1.48l.4.49c1-.77,1.83-1.45,1.89-1.48s-.52-1.82.23-1.79,2.71,1.86,2.71,1.86c.32.38-.36,1.85-1.18,3.31,0,0-4.78,16.7-6.39,21.29-.44,1.24-.62,2.65-1.48,2.61a1.57,1.57,0,0,1-1.49-1.64,66.54,66.54,0,0,1,.74-8.46c1.4-5.37,2.4-9.86,3.16-12.73l-1-.67"/><path class="cls-8" d="M108.42,48.41s7.94-25.08,7.51-26a.81.81,0,0,0-.06-.08s-2-1.84-2.71-1.86-6,3.12-6,3.15-4.93,9-1.94,25c.13.69,2.31,1,3.24-.24m5.15-26.55c0-.09,0-.28-.08-.47a8.92,8.92,0,0,1,1.9.94c-.46,1.56-7,25.89-8.54,26-2.57.08,2.22-23.18,1.65-23.6,1.6-1.28,4.45-1.55,4.77-1.77s.36-.76.3-1.05"/><polygon points="106.67 55.1 101.19 53.16 102.13 50.53 109.09 53 106.67 55.1"/><path d="M105.69,49.06s1.2,4.49,1,6a3.32,3.32,0,0,0,2.6-1.6l-.85-5.09Z"/><g class="cls-9"><rect class="cls-10" x="106" y="50.11" width="3.35" height="3.19" transform="translate(-10.35 70.04) rotate(-34.48)"/></g><path class="cls-8" d="M106.29,50.64l2.3-.45a.36.36,0,0,1,.43.3l.33,1.65a.28.28,0,0,1,0,.09.93.93,0,0,1-.74,1l-1.2.24a1,1,0,0,1-1.07-.66.19.19,0,0,1,0-.08v0h0L106,51.09a.38.38,0,0,1,.29-.45"/><polygon points="108.7 50.69 106.33 51.16 106.47 51.87 108.85 51.43 108.7 50.69"/><polygon points="106.47 51.87 106.64 52.71 109.01 52.24 108.85 51.43 106.47 51.87"/><path class="cls-4" d="M111.91,23.22c-1.2.76-2.33,1.61-3.53,2.5L108,26l-3.68-2.76,1.93-1.5c2-1.55,4.12-3,5-3,.9.64,2.47,1.8,3.77,2.94h0c-.12,0-.8,0-3.17,1.52"/><path class="cls-7" d="M106.29,21.72l-1.93,1.5-.58-.44c.73-.55,1.43-1.09,2.08-1.61,2.23-1.76,3.59-3,4.74-2.91l.34.23c.1.06.37.27.37.27-.9,0-3.06,1.41-5,3"/><path class="cls-7" d="M108.38,25.72c1.2-.89,2.33-1.74,3.53-2.5,2.37-1.51,3-1.53,3.17-1.52h0l.42.35.37.32s-1-.14-3.59,1.43c-1.19.73-2.3,1.59-3.48,2.48l-.18.13L108,26l.34-.26"/><path class="cls-4" d="M104.75,20.61,103.17,20s.87-2.34.87-2.47,1.67.45,1.91.93a12.48,12.48,0,0,1-1.2,2.11"/><path class="cls-4" d="M96,17.49l1.84.64s.79-2.36.87-2.47a2.71,2.71,0,0,0-2-.6Z"/><path class="cls-4" d="M99.75,13.78c-.66-.08-3.12,1.28-3.12,1.28l2,.59,2-1.67a5.66,5.66,0,0,0-.86-.2"/><path class="cls-7" d="M101.94,14.42s-.68-.25-1.33-.44l-2,1.68c.8.24,1.72.53,2.55.83s1.93.75,2.81,1.13l-.76-2.7c-.63-.26-1.32-.5-1.32-.5"/><path class="cls-4" d="M104.05,15.3a5.91,5.91,0,0,0-.79-.38l.76,2.7c1.09.48,1.93.88,1.93.88s-1.34-2.84-1.9-3.2"/><path class="cls-7" d="M104.08,51.88l2.13-6,3.5-9.88a14.36,14.36,0,1,0-27.07-9.59l-3.5,9.87-2.13,6Z"/><path class="cls-7" d="M80.83,51l.28.1,14.22,5.05.29.09a6.82,6.82,0,0,0,7.45-2.44L76.58,44.43A6.81,6.81,0,0,0,80.83,51"/><polygon class="cls-11" points="77.02 42.28 76.96 42.42 76.96 42.43 77.02 42.28"/><path class="cls-2" d="M77,42.28l-.05.15a6.67,6.67,0,0,0-.38,2l26.49,9.39a6.61,6.61,0,0,0,1-1.8l0-.14Z"/><g class="cls-12"><g class="cls-13"><rect class="cls-14" x="87.24" y="26.02" width="14.31" height="20.44" rx="2.15" transform="translate(28.69 113.1) rotate(-70.48)"/></g></g><rect x="94.21" y="24.62" width="1.36" height="20.44" transform="translate(30.34 112.63) rotate(-70.48)"/><path d="M100.57,37.38c.06-.36-.15-.48-.18-.48s-.26-.06-.44.26-.85,1.6-.85,1.6a.59.59,0,0,0,1.12.4s.27-1.33.35-1.78m-1,1.8a.29.29,0,0,1-.17-.36.27.27,0,0,1,.36-.17A.28.28,0,0,1,100,39a.29.29,0,0,1-.37.17"/><path class="cls-2" d="M85.52,12.05h.84a4.06,4.06,0,0,1,.55.74A14.52,14.52,0,0,1,88.26,16c.43,1.55.75,2.81.75,2.81S85.39,21,84.17,23.32,80,33.8,78.91,36.94s-1.32,3.73-1.32,3.73L72,47.29l-2.31-8.22Z"/></svg>